<svg width="896" height="896" viewBox="0 0 896 896" fill="none" xmlns="http://www.w3.org/2000/svg">
<path d="M448 0C200.6 0 0 200.6 0 448C0 695.4 200.6 896 448 896C695.4 896 896 695.4 896 448C896 200.6 695.4 0 448 0ZM624.5 585.7L595.9 624.7C595.278 625.549 594.494 626.267 593.594 626.812C592.693 627.358 591.694 627.72 590.653 627.878C589.613 628.036 588.551 627.987 587.529 627.733C586.508 627.479 585.546 627.026 584.7 626.4L419.3 505.8C418.27 505.06 417.432 504.083 416.858 502.952C416.283 501.821 415.989 500.569 416 499.3V224C416 219.6 419.6 216 424 216H472.1C476.5 216 480.1 219.6 480.1 224V471.5L622.7 574.6C626.3 577.1 627.1 582.1 624.5 585.7Z" fill="#515151"/>
</svg>
