<svg width="38" height="38" viewBox="0 0 38 38" fill="none" xmlns="http://www.w3.org/2000/svg">
<path d="M30.0833 7.91667V30.0833H7.91667V7.91667H30.0833ZM31.825 4.75H6.175C5.38333 4.75 4.75 5.38333 4.75 6.175V31.825C4.75 32.4583 5.38333 33.25 6.175 33.25H31.825C32.4583 33.25 33.25 32.4583 33.25 31.825V6.175C33.25 5.38333 32.4583 4.75 31.825 4.75ZM17.4167 11.0833H26.9167V14.25H17.4167V11.0833ZM17.4167 17.4167H26.9167V20.5833H17.4167V17.4167ZM17.4167 23.75H26.9167V26.9167H17.4167V23.75ZM11.0833 11.0833H14.25V14.25H11.0833V11.0833ZM11.0833 17.4167H14.25V20.5833H11.0833V17.4167ZM11.0833 23.75H14.25V26.9167H11.0833V23.75Z" fill="#356273"/>
</svg>
