<svg xmlns="http://www.w3.org/2000/svg" viewBox="0 0 195.26 61.15"><defs><style>.cls-1{fill:#356273;}.cls-2{fill:#19a795;}.cls-3{fill:#fff;}</style></defs><g id="Layer_2" data-name="Layer 2"><g id="Layer_1-2" data-name="Layer 1"><path class="cls-1" d="M65.18,28.86v-.07a8.6,8.6,0,0,1,8.88-8.63,7.84,7.84,0,0,1,7.07,3.7L77.18,26.8a3.56,3.56,0,0,0-3.09-1.74,3.43,3.43,0,0,0-3.25,3.67v.06c0,2.15,1.35,3.77,3.31,3.77a4,4,0,0,0,3.19-1.71l3.88,2.81a8.21,8.21,0,0,1-7.38,3.8A8.54,8.54,0,0,1,65.18,28.86Z"/><path class="cls-1" d="M82.15,28.86v-.07a8.82,8.82,0,0,1,9.18-8.66c5.3,0,9.13,3.89,9.13,8.6v.06c0,4.72-3.86,8.67-9.19,8.67S82.15,33.57,82.15,28.86Zm12.64,0v-.07a3.59,3.59,0,0,0-3.52-3.73,3.47,3.47,0,0,0-3.46,3.67v.06a3.59,3.59,0,0,0,3.52,3.74A3.46,3.46,0,0,0,94.79,28.86Z"/><path class="cls-1" d="M102.91,20.49h5.82v2.33a6.14,6.14,0,0,1,5-2.69c3.53,0,5.64,2.32,5.64,6.09V37.06h-5.82v-9c0-1.81-1-2.79-2.33-2.79s-2.45,1-2.45,2.79v9h-5.82Z"/><path class="cls-1" d="M121.08,35l2.17-3.52a10.82,10.82,0,0,0,5.7,1.9c1,0,1.47-.31,1.47-.89v-.06c0-.64-.92-.92-2.67-1.41-3.27-.86-5.88-2-5.88-5.3v-.06c0-3.52,2.82-5.48,6.65-5.48a12.92,12.92,0,0,1,6.83,1.93l-2,3.67a11.2,11.2,0,0,0-4.9-1.53c-.89,0-1.35.34-1.35.8v.06c0,.64,1,.95,2.7,1.47,3.27.92,5.88,2.05,5.88,5.27v.06c0,3.64-2.73,5.54-6.77,5.54A13.37,13.37,0,0,1,121.08,35Z"/><path class="cls-1" d="M138,31.34V20.49h5.81v9c0,1.81.95,2.78,2.36,2.78s2.42-1,2.42-2.78v-9h5.82V37.06h-5.82V34.8a6.11,6.11,0,0,1-5,2.63C140.07,37.43,138,35.1,138,31.34Z"/><path class="cls-1" d="M157.62,14.71h5.82V37.06h-5.82Z"/><path class="cls-1" d="M167.7,31.92V25.18h-2V20.49h2V16.3h5.82v4.19h3.85v4.69h-3.85v5.61c0,1.16.52,1.65,1.59,1.65a5.18,5.18,0,0,0,2.2-.55v4.56a8.32,8.32,0,0,1-4,.95C169.78,37.4,167.7,35.87,167.7,31.92Z"/><path class="cls-1" d="M179.06,32.32v-.07c0-3.42,2.6-5.2,6.49-5.2a12.94,12.94,0,0,1,4,.64v-.27c0-1.72-1.08-2.7-3.31-2.7a11.72,11.72,0,0,0-4.57.92l-1.19-4.1a16.58,16.58,0,0,1,6.71-1.29c3,0,5,.7,6.31,2s1.77,2.94,1.77,5.27v9.52H189.5V35.35a6.25,6.25,0,0,1-4.87,2.08C181.48,37.43,179.06,35.62,179.06,32.32Zm10.54-1.26v-.77a6.25,6.25,0,0,0-2.27-.42c-1.68,0-2.66.82-2.66,2.05V32a1.82,1.82,0,0,0,2.05,1.81A2.67,2.67,0,0,0,189.6,31.06Z"/><circle class="cls-2" cx="28.74" cy="28.74" r="28.74"/><path class="cls-2" d="M27.12,29.9c.2-.25,19.68,12.16,17.56,19.79-1.19,4.25-8.92,6.48-10,6.8a23.17,23.17,0,0,1-8.28.74C11.29,56.4,3.51,63.55.78,60.3c-4-4.82,8.83-25.49,10.85-30.15.16-.38.75-1.75,1.66-3.54.33-.64.69-1.33,1.11-2.07C14.56,24.25,27.12,1.68,35,3c8.94,1.48,13.42,34.09,6.87,37C37.33,42,27,30.1,27.12,29.9Z"/><path class="cls-3" d="M24.66,33H17.11V25.46h7.55V17.77h7.77v7.69H40V33H32.43v7.69H24.66Z"/></g></g></svg>