<svg width="42" height="42" viewBox="0 0 42 42" fill="none" xmlns="http://www.w3.org/2000/svg">
<path d="M21 38.5C22.925 38.5 24.5 36.925 24.5 35H17.5C17.5 36.925 19.075 38.5 21 38.5ZM31.5 28V19.25C31.5 13.8775 28.6475 9.38 23.625 8.19V7C23.625 5.5475 22.4525 4.375 21 4.375C19.5475 4.375 18.375 5.5475 18.375 7V8.19C13.37 9.38 10.5 13.86 10.5 19.25V28L7 31.5V33.25H35V31.5L31.5 28ZM28 29.75H14V19.25C14 14.91 16.6425 11.375 21 11.375C25.3575 11.375 28 14.91 28 19.25V29.75Z" fill="#366273"/>
</svg>
