<svg width="35" height="36" viewBox="0 0 35 36" fill="none" xmlns="http://www.w3.org/2000/svg">
<path d="M17.5 0.636353C8.01325 0.636353 0 8.6496 0 18.1364C0 27.6231 8.01325 35.6364 17.5 35.6364C26.9867 35.6364 35 27.6231 35 18.1364C35 8.6496 26.9867 0.636353 17.5 0.636353ZM17.5 9.38635C20.5222 9.38635 22.75 11.6124 22.75 14.6364C22.75 17.6604 20.5222 19.8864 17.5 19.8864C14.4795 19.8864 12.25 17.6604 12.25 14.6364C12.25 11.6124 14.4795 9.38635 17.5 9.38635ZM8.5645 26.4874C10.1342 24.1774 12.7522 22.6374 15.75 22.6374H19.25C22.2495 22.6374 24.8658 24.1774 26.4355 26.4874C24.199 28.8814 21.0263 30.3864 17.5 30.3864C13.9738 30.3864 10.801 28.8814 8.5645 26.4874Z" fill="white"/>
</svg>
